<svg xmlns="http://www.w3.org/2000/svg" width="24" height="24" viewBox="0 0 24 24" fill="none">
    <path d="M15.66 2.75141L22.0886 8.9657C22.1507 9.02573 22.2001 9.09765 22.2338 9.17717C22.2675 9.25668 22.2849 9.34218 22.2849 9.42856C22.2849 9.51494 22.2675 9.60043 22.2338 9.67995C22.2001 9.75947 22.1507 9.83138 22.0886 9.89141L15.66 16.1057C15.6012 16.1636 15.5316 16.2093 15.4551 16.2402C15.3786 16.2711 15.2968 16.2866 15.2143 16.2857C15.0438 16.2857 14.8803 16.218 14.7597 16.0974C14.6391 15.9769 14.5714 15.8133 14.5714 15.6428V12.4371C8.82855 12.6686 6.41141 15.8828 6.30855 16.02C6.22672 16.1277 6.11377 16.2077 5.98499 16.2491C5.85621 16.2904 5.71782 16.2913 5.58855 16.2514C5.45962 16.2099 5.3471 16.1287 5.26705 16.0194C5.18701 15.9101 5.14354 15.7783 5.14284 15.6428C5.14284 8.76856 10.7914 6.65999 14.5714 6.4457V3.21427C14.5717 3.08784 14.6092 2.9643 14.6794 2.85911C14.7495 2.75391 14.8491 2.67173 14.9657 2.62284C15.0811 2.57306 15.2088 2.5587 15.3324 2.58159C15.456 2.60448 15.57 2.66359 15.66 2.75141ZM6.64284 3.42856C5.56303 3.42856 4.52745 3.85751 3.76391 4.62105C3.00036 5.38459 2.57141 6.42018 2.57141 7.49999V17.3571C2.57141 18.4369 3.00036 19.4725 3.76391 20.2361C4.52745 20.9996 5.56303 21.4286 6.64284 21.4286H16.5C17.5798 21.4286 18.6154 20.9996 19.3789 20.2361C20.1425 19.4725 20.5714 18.4369 20.5714 17.3571V16.9286C20.5714 16.7581 20.5037 16.5945 20.3831 16.474C20.2626 16.3534 20.099 16.2857 19.9286 16.2857C19.7581 16.2857 19.5945 16.3534 19.474 16.474C19.3534 16.5945 19.2857 16.7581 19.2857 16.9286V17.3571C19.2857 18.0959 18.9922 18.8045 18.4698 19.3269C17.9474 19.8493 17.2388 20.1428 16.5 20.1428H6.64284C5.90402 20.1428 5.19546 19.8493 4.67304 19.3269C4.15062 18.8045 3.85713 18.0959 3.85713 17.3571V7.49999C3.85713 6.76117 4.15062 6.05261 4.67304 5.53019C5.19546 5.00777 5.90402 4.71427 6.64284 4.71427H10.5C10.6705 4.71427 10.834 4.64654 10.9546 4.52598C11.0751 4.40542 11.1428 4.24191 11.1428 4.07141C11.1428 3.90092 11.0751 3.7374 10.9546 3.61685C10.834 3.49629 10.6705 3.42856 10.5 3.42856H6.64284Z" fill="white" fill-opacity="0.5"/>
</svg>