<svg xmlns="http://www.w3.org/2000/svg" width="25" height="24" viewBox="0 0 25 24" fill="none">
    <path fill-rule="evenodd" clip-rule="evenodd" d="M17.75 15.2728C17.75 17.3858 15.64 19.5 12.5 19.5C9.35996 19.5 7.25 17.3858 7.25 15.2728C7.25 13.0812 8.67545 10.3518 10.3509 7.97573C11.1082 6.90179 11.8682 5.96632 12.4625 5.27526C13.0681 6.02032 13.854 7.03453 14.637 8.17914C15.4534 9.37256 16.2474 10.6799 16.8325 11.9522C17.4283 13.2478 17.75 14.3855 17.75 15.2728ZM5.75 15.2728C5.75 11.1952 9.59842 6.27823 11.4836 4.11422C12.0951 3.41228 12.5 3 12.5 3C12.5 3 12.8879 3.42883 13.4778 4.14716C15.3484 6.42525 19.25 11.615 19.25 15.2728C19.25 18.4359 16.2279 21 12.5 21C8.77208 21 5.75 18.4359 5.75 15.2728ZM9.12375 12.75H10.7374C10.4338 13.443 10.25 14.1001 10.25 14.6592C10.25 15.5176 11.0897 16.5 12.5 16.5V18C10.4289 18 8.75 16.5043 8.75 14.6592C8.75 14.0435 8.89325 13.395 9.12375 12.75Z" fill="white"/>
</svg>