<svg xmlns="http://www.w3.org/2000/svg" width="24" height="24" viewBox="0 0 24 24" fill="none">
    <path d="M1 22C0.447716 22 0 21.5523 0 21V19.6667C0 19.1144 0.447715 18.6667 1 18.6667H23C23.5523 18.6667 24 19.1144 24 19.6667V21C24 21.5523 23.5523 22 23 22H1ZM1 13.6667C0.447716 13.6667 0 13.219 0 12.6667V11.3333C0 10.781 0.447715 10.3333 1 10.3333H23C23.5523 10.3333 24 10.781 24 11.3333V12.6667C24 13.219 23.5523 13.6667 23 13.6667H1ZM1 5.33333C0.447716 5.33333 0 4.88562 0 4.33333V3C0 2.44771 0.447715 2 1 2H23C23.5523 2 24 2.44772 24 3V4.33333C24 4.88562 23.5523 5.33333 23 5.33333H1Z" fill="white"/>
</svg>