<svg xmlns="http://www.w3.org/2000/svg" width="24" height="24" viewBox="0 0 24 24" fill="none">
    <path fill-rule="evenodd" clip-rule="evenodd" d="M10.5001 8.24578L10.5001 8.24136L6.25454 8.24131L10.327 6.76975L10.3266 6.76854C10.4046 6.74887 10.4853 6.74187 10.5656 6.74787C10.5762 6.74866 10.5868 6.74967 10.5974 6.75092L10.5975 6.75093C10.7078 6.76393 10.8138 6.80126 10.9079 6.86024L10.908 6.86025C11.0021 6.91923 11.0819 6.99839 11.1417 7.092L11.1418 7.09215C11.2015 7.18577 11.2398 7.29149 11.2537 7.40169L11.2537 7.4019C11.2676 7.51214 11.2569 7.6241 11.2223 7.72967L11.2222 7.72976C11.1876 7.83536 11.1299 7.93193 11.0533 8.0125L11.0533 8.01257C10.9767 8.0931 10.8833 8.15562 10.7796 8.1956L10.7794 8.19568C10.7697 8.19944 10.7599 8.20298 10.75 8.20632C10.6695 8.23355 10.585 8.24688 10.5001 8.24578ZM3 7.82219V9.74139L10.4847 9.74149C10.7689 9.74467 11.0517 9.69383 11.3177 9.5912L11.3179 9.59112C11.5204 9.51298 11.7099 9.4061 11.8809 9.27425C11.9719 9.20404 12.0576 9.12674 12.1373 9.04294L12.1373 9.04286C12.3665 8.80166 12.5392 8.51254 12.6429 8.1964L12.643 8.19632C12.7467 7.88018 12.779 7.54493 12.7373 7.21482L12.7373 7.2146C12.6957 6.88448 12.5812 6.56773 12.4022 6.28727L12.4021 6.28712C12.223 6.00663 11.9839 5.76945 11.702 5.59274L11.7019 5.59273C11.604 5.53133 11.5017 5.47775 11.396 5.43236C11.1977 5.34712 10.9875 5.2907 10.7719 5.26535L10.7717 5.26533C10.4505 5.22759 10.1251 5.25973 9.81759 5.35942L9.81736 5.35878L9.79434 5.36709L9.79163 5.36801L9.79132 5.36811L9.79134 5.36818L3 7.82219ZM3 14.2485V15.7894L12.9044 19.313L12.9042 19.3133C13.2627 19.4563 13.6482 19.5185 14.0335 19.4954C14.1816 19.4865 14.3282 19.4651 14.4719 19.4316C14.7019 19.378 14.9243 19.2934 15.1328 19.1796C15.4716 18.9948 15.7655 18.7375 15.9934 18.426C16.2214 18.1146 16.3779 17.7566 16.4518 17.3778C16.5257 16.9989 16.5151 16.6084 16.4208 16.2341C16.3265 15.8597 16.1508 15.5108 15.9062 15.2122C15.7557 15.0284 15.5814 14.8664 15.3883 14.7303C15.2678 14.6453 15.1399 14.5703 15.006 14.5064C14.6582 14.3405 14.2782 14.2532 13.8929 14.2508V14.2486L3 14.2485ZM13.8827 15.7487L7.36133 15.7487L13.4881 17.9284L13.4876 17.9299C13.6332 17.9836 13.7885 18.0066 13.9437 17.9973C14.1086 17.9874 14.2694 17.9413 14.4144 17.8621C14.5595 17.783 14.6854 17.6728 14.783 17.5394C14.8806 17.406 14.9476 17.2528 14.9793 17.0905C15.0109 16.9283 15.0063 16.7611 14.966 16.6008C14.9256 16.4405 14.8504 16.2911 14.7456 16.1632C14.6409 16.0353 14.5093 15.9321 14.3601 15.861C14.2112 15.7899 14.0484 15.7525 13.8834 15.7515L13.8827 15.7515L13.8827 15.7512L13.8827 15.7487ZM17.2635 8.43609L17.2629 8.43646L16.5252 7.13037L16.5244 7.12886L16.5258 7.12803C16.9252 6.90263 17.371 6.7718 17.8288 6.74563C17.8952 6.74183 17.9616 6.74025 18.0279 6.74087C18.4193 6.74452 18.8068 6.82473 19.1684 6.9777C19.5913 7.15659 19.9675 7.43018 20.2681 7.77742C20.5686 8.12465 20.7855 8.53626 20.9019 8.98054C21.0184 9.42481 21.0313 9.88989 20.9398 10.34C20.8482 10.79 20.6546 11.2131 20.3739 11.5765C20.1338 11.8873 19.8355 12.1473 19.4964 12.3426C19.4389 12.3757 19.3802 12.4069 19.3204 12.4362C18.9081 12.6384 18.455 12.7432 17.9958 12.7425V12.7423H3V11.2423H17.9979L17.9979 11.2407C18.2273 11.241 18.4536 11.1886 18.6596 11.0877C18.8656 10.9867 19.0456 10.8398 19.1858 10.6582C19.3261 10.4767 19.4228 10.2653 19.4685 10.0405C19.5142 9.81569 19.5078 9.58337 19.4496 9.36144C19.3914 9.13951 19.2831 8.93389 19.133 8.76044C18.9829 8.58698 18.7949 8.45031 18.5837 8.36095C18.3724 8.27159 18.1435 8.23193 17.9145 8.24502C17.6858 8.2581 17.4631 8.32346 17.2635 8.43609Z" fill="white"/>
</svg>